<?xml version="1.0" encoding="utf-8"?>
<!-- Generator: Adobe Illustrator 16.0.0, SVG Export Plug-In . SVG Version: 6.00 Build 0)  -->
<!DOCTYPE svg PUBLIC "-//W3C//DTD SVG 1.0//EN" "http://www.w3.org/TR/2001/REC-SVG-20010904/DTD/svg10.dtd">
<svg version="1.0" id="Layer_1" xmlns="http://www.w3.org/2000/svg" xmlns:xlink="http://www.w3.org/1999/xlink" x="0px" y="0px"
	 width="26px" height="26px" viewBox="0 0 26 26" enable-background="new 0 0 26 26" xml:space="preserve">
<g>
	<path d="M13,2c6.065,0,11,4.935,11,11s-4.935,11-11,11S2,19.065,2,13S6.935,2,13,2 M13,1C6.373,1,1,6.373,1,13s5.373,12,12,12
		s12-5.373,12-12S19.627,1,13,1L13,1z"/>
	<polygon points="13,15.918 17,19 15.597,14.03 20,11 14.781,11 13,6 11.219,11 6,11 10.403,14.03 9,19 	"/>
	<path d="M13,6c3.866,0,7,3.134,7,7s-3.134,7-7,7s-7-3.134-7-7S9.134,6,13,6 M13,5c-4.411,0-8,3.589-8,8s3.589,8,8,8s8-3.589,8-8
		S17.411,5,13,5L13,5z"/>
</g>
</svg>
