<?xml version="1.0" encoding="utf-8"?>
<!-- Generator: Adobe Illustrator 16.0.0, SVG Export Plug-In . SVG Version: 6.00 Build 0)  -->
<!DOCTYPE svg PUBLIC "-//W3C//DTD SVG 1.0//EN" "http://www.w3.org/TR/2001/REC-SVG-20010904/DTD/svg10.dtd">
<svg version="1.0" id="Layer_1" xmlns="http://www.w3.org/2000/svg" xmlns:xlink="http://www.w3.org/1999/xlink" x="0px" y="0px"
	 width="26px" height="26px" viewBox="0 0 26 26" enable-background="new 0 0 26 26" xml:space="preserve">
<g>
	<path fill="#808086" d="M178,426c-6.627,0-12,5.373-12,12s5.373,12,12,12s12-5.373,12-12S184.627,426,178,426z M178,449
		c-6.065,0-11-4.935-11-11s4.935-11,11-11s11,4.935,11,11S184.065,449,178,449z"/>
	<polygon fill="#808086" points="182.293,443.707 177,438.414 177,429 179,429 179,437.586 183.707,442.293 	"/>
</g>
<g>
	<path fill="#808086" d="M13,1C6.373,1,1,6.373,1,13s5.373,12,12,12s12-5.373,12-12S19.627,1,13,1z M13,24C6.935,24,2,19.065,2,13
		S6.935,2,13,2s11,4.935,11,11S19.065,24,13,24z"/>
	<polygon fill="#808086" points="17.293,18.707 12,13.414 12,4 14,4 14,12.586 18.707,17.293 	"/>
</g>
</svg>
