<?xml version="1.0" encoding="utf-8"?>
<!-- Generator: Adobe Illustrator 16.0.0, SVG Export Plug-In . SVG Version: 6.00 Build 0)  -->
<!DOCTYPE svg PUBLIC "-//W3C//DTD SVG 1.0//EN" "http://www.w3.org/TR/2001/REC-SVG-20010904/DTD/svg10.dtd">
<svg version="1.0" id="Layer_1" xmlns="http://www.w3.org/2000/svg" xmlns:xlink="http://www.w3.org/1999/xlink" x="0px" y="0px"
	 width="26px" height="26px" viewBox="0 0 26 26" enable-background="new 0 0 26 26" xml:space="preserve">
<g>
	<path fill="#808086" d="M13,1C6.373,1,1,6.373,1,13s5.373,12,12,12s12-5.373,12-12S19.627,1,13,1z M13,24C6.935,24,2,19.065,2,13
		S6.935,2,13,2s11,4.935,11,11S19.065,24,13,24z"/>
	<circle fill="#808086" cx="13" cy="6" r="1.5"/>
	<path fill="#808086" d="M19.25,8H13H6.75C6.336,8,6,8.336,6,8.75S6.336,9.5,6.75,9.5L11,10c0,0,0.033,2.771,0,3l-0.754,7.143
		c-0.059,0.41,0.227,0.79,0.637,0.849c0.035,0.005,0.071,0.008,0.106,0.008c0.367,0,0.688-0.271,0.741-0.644l0.945-5.354
		C12.777,15.001,12.883,15,13,15s0.223,0.001,0.324,0.002l0.945,5.354c0.053,0.373,0.374,0.644,0.741,0.644
		c0.035,0,0.071-0.003,0.106-0.008c0.41-0.059,0.695-0.438,0.637-0.849L15,13c-0.033-0.229,0-3,0-3l4.25-0.5
		C19.664,9.5,20,9.164,20,8.75S19.664,8,19.25,8z"/>
</g>
</svg>
