<?xml version="1.0" encoding="utf-8"?>
<!-- Generator: Adobe Illustrator 16.0.0, SVG Export Plug-In . SVG Version: 6.00 Build 0)  -->
<!DOCTYPE svg PUBLIC "-//W3C//DTD SVG 1.0//EN" "http://www.w3.org/TR/2001/REC-SVG-20010904/DTD/svg10.dtd">
<svg version="1.0" id="Layer_1" xmlns="http://www.w3.org/2000/svg" xmlns:xlink="http://www.w3.org/1999/xlink" x="0px" y="0px"
	 width="26px" height="26px" viewBox="0 0 26 26" enable-background="new 0 0 26 26" xml:space="preserve">
<g>
	<path fill="#808086" d="M178,426c-6.627,0-12,5.373-12,12s5.373,12,12,12s12-5.373,12-12S184.627,426,178,426z M178,449
		c-6.065,0-11-4.935-11-11s4.935-11,11-11s11,4.935,11,11S184.065,449,178,449z"/>
	<polygon fill="#808086" points="182.293,443.707 177,438.414 177,429 179,429 179,437.586 183.707,442.293 	"/>
</g>
<path fill="#808086" d="M13,1L3,7v12l10,6l10-6V7L13,1z M20.084,7.583L13,11.834L5.916,7.583L13,3.332L20.084,7.583z M5,9.366l7,4.2
	v8.501l-7-4.2V9.366z M14,22.067v-8.501l7-4.2v8.501L14,22.067z"/>
</svg>
