<?xml version="1.0" encoding="utf-8"?>
<!-- Generator: Adobe Illustrator 16.0.0, SVG Export Plug-In . SVG Version: 6.00 Build 0)  -->
<!DOCTYPE svg PUBLIC "-//W3C//DTD SVG 1.0//EN" "http://www.w3.org/TR/2001/REC-SVG-20010904/DTD/svg10.dtd">
<svg version="1.0" id="Layer_1" xmlns="http://www.w3.org/2000/svg" xmlns:xlink="http://www.w3.org/1999/xlink" x="0px" y="0px"
	 width="36px" height="36px" viewBox="0 0 36 36" enable-background="new 0 0 36 36" xml:space="preserve">
<g>
	<g>
		<path fill="#FFFFFF" d="M20.051,12.281c0.375,0.266,0.562,0.652,0.562,1.16c0,0.453-0.131,0.863-0.393,1.23
			s-0.803,0.844-1.623,1.43c-0.852,0.625-1.438,1.215-1.758,1.77s-0.48,1.207-0.48,1.957V21h3.105v-1.008
			c0-0.469,0.1-0.848,0.299-1.137s0.674-0.711,1.424-1.266c1.094-0.781,1.836-1.484,2.227-2.109S24,14.113,24,13.254
			c0-1.289-0.475-2.32-1.424-3.094S20.348,9,18.738,9c-1.953,0-4.273,0.457-6.016,1.434L14,13c1.5-0.766,3.309-1.117,4.48-1.117
			C19.152,11.883,19.676,12.016,20.051,12.281z"/>
		<path fill="#FFFFFF" d="M19.547,26.451c0.359-0.355,0.539-0.842,0.539-1.459c0-0.641-0.178-1.133-0.533-1.477S18.695,23,18.047,23
			c-0.672,0-1.184,0.168-1.535,0.504s-0.527,0.832-0.527,1.488c0,0.633,0.18,1.123,0.539,1.471s0.867,0.521,1.523,0.521
			C18.688,26.984,19.188,26.807,19.547,26.451z"/>
	</g>
	<polygon fill="#FFFFFF" points="28,1 28,3 33,3 33,8 35,8 35,1 	"/>
</g>
</svg>
