<?xml version="1.0" encoding="utf-8"?>
<!-- Generator: Adobe Illustrator 16.0.0, SVG Export Plug-In . SVG Version: 6.00 Build 0)  -->
<!DOCTYPE svg PUBLIC "-//W3C//DTD SVG 1.0//EN" "http://www.w3.org/TR/2001/REC-SVG-20010904/DTD/svg10.dtd">
<svg version="1.0" id="Layer_1" xmlns="http://www.w3.org/2000/svg" xmlns:xlink="http://www.w3.org/1999/xlink" x="0px" y="0px"
	 width="26px" height="26px" viewBox="0 0 26 26" enable-background="new 0 0 26 26" xml:space="preserve">
<g>
	<path fill="#808086" d="M24,4v16H2V4H24 M25,3H1v18h24V3L25,3z"/>
	<polygon fill="#808086" points="24,23 24,24 2,24 2,23 1,23 1,25 25,25 25,23 	"/>
	<polygon fill="#808086" points="24,21 24,22 2,22 2,21 1,21 1,23 25,23 25,21 	"/>
	<rect x="4" y="1" fill="#808086" width="2" height="4"/>
	<rect x="20" y="1" fill="#808086" width="2" height="4"/>
	<rect x="4" y="11" fill="#808086" width="12" height="3"/>
	<rect x="4" y="15" fill="#808086" width="6" height="3"/>
	<rect x="17" y="11" fill="#808086" width="5" height="3"/>
	<rect x="10" y="15" fill="#CCCCCE" width="6" height="3"/>
	<rect x="17" y="15" fill="#CCCCCE" width="5" height="3"/>
	<rect x="17" y="7" fill="#808086" width="5" height="3"/>
	<g>
		<rect x="4" y="7" fill="#808086" width="12" height="3"/>
	</g>
</g>
</svg>
