<?xml version="1.0" encoding="utf-8"?>
<!-- Generator: Adobe Illustrator 16.0.0, SVG Export Plug-In . SVG Version: 6.00 Build 0)  -->
<!DOCTYPE svg PUBLIC "-//W3C//DTD SVG 1.0//EN" "http://www.w3.org/TR/2001/REC-SVG-20010904/DTD/svg10.dtd">
<svg version="1.0" id="Layer_1" xmlns="http://www.w3.org/2000/svg" xmlns:xlink="http://www.w3.org/1999/xlink" x="0px" y="0px"
	 width="22px" height="22px" viewBox="0 0 22 22" enable-background="new 0 0 22 22" xml:space="preserve" fill="#3b59b4">
<g>
	<g>
		<path d="M21,13.5c0-0.828-0.672-1.5-1.5-1.5c0.828,0,1.5-0.672,1.5-1.5S20.328,9,19.5,9H14c0,0,0-4,0-6s-3-2-3-2v3c0,0,0,1-1,2
			s-4,4-4,4v10h13c0.553,0,1-0.447,1-1c0-0.381-0.221-0.7-0.533-0.869L19.5,18c0.828,0,1.5-0.672,1.5-1.5S20.328,15,19.5,15
			C20.328,15,21,14.328,21,13.5z"/>
	</g>
	<rect x="1" y="9" width="3" height="12"/>
</g>
</svg>
