<?xml version="1.0" encoding="utf-8"?>
<!-- Generator: Adobe Illustrator 16.0.0, SVG Export Plug-In . SVG Version: 6.00 Build 0)  -->
<!DOCTYPE svg PUBLIC "-//W3C//DTD SVG 1.0//EN" "http://www.w3.org/TR/2001/REC-SVG-20010904/DTD/svg10.dtd">
<svg version="1.0" id="Layer_1" xmlns="http://www.w3.org/2000/svg" xmlns:xlink="http://www.w3.org/1999/xlink" x="0px" y="0px"
	 width="20px" height="20px" viewBox="0 0 20 20" enable-background="new 0 0 20 20" xml:space="preserve">
<path fill="#FFFFFF" d="M18.433,7.805C18.236,7.174,17.661,7,17,7h-4.161l-1.425-4.254C11.202,2.15,10.634,1.625,10,1.625
	c-0.633,0-1.201,0.588-1.413,1.183L7.161,7H3C2.34,7,1.764,7.174,1.567,7.805C1.372,8.435,1.605,8.986,2.15,9.361l3.518,2.358
	l-1.111,3.905c-0.176,0.624,0.066,1.271,0.602,1.634c0.527,0.357,1.256,0.326,1.756-0.062L10,14.816l3.084,2.373
	c0.506,0.391,1.232,0.409,1.757,0.054c0.537-0.362,0.78-1.026,0.604-1.649l-1.11-3.938l3.518-2.296
	C18.395,8.986,18.629,8.435,18.433,7.805z"/>
<path fill="#CCCCCE" d="M10,2c0.423,0,0.801,0.267,0.943,0.664l1.306,3.672L12.485,7h0.706H17c0.44,0,0.824,0.283,0.955,0.703
	s-0.025,0.871-0.388,1.121l-3.223,2.217l-0.59,0.406l0.194,0.689l1.015,3.592c0.117,0.416-0.045,0.857-0.404,1.101
	C14.395,16.94,14.201,17,14,17c-0.223,0-0.434-0.072-0.61-0.208l-2.779-2.141L10,14.181l-0.61,0.471l-2.781,2.142
	C6.434,16.929,6.223,17,6,17c-0.201,0-0.395-0.06-0.561-0.172c-0.357-0.242-0.519-0.684-0.401-1.1l1.014-3.592l0.194-0.689
	l-0.59-0.406L2.434,8.824c-0.363-0.25-0.52-0.7-0.389-1.12C2.176,7.283,2.56,7,3,7h3.809h0.706L7.75,6.335l1.308-3.672
	C9.2,2.267,9.578,2,10,2 M10,1C9.154,1,8.399,1.532,8.116,2.328L6.809,6H3C2.124,6,1.351,6.57,1.09,7.406
	C0.83,8.242,1.145,9.15,1.866,9.647l3.223,2.218l-1.014,3.592c-0.234,0.83,0.09,1.717,0.804,2.199C5.219,17.887,5.609,18,6,18
	c0.432,0,0.862-0.139,1.221-0.416L10,15.443l2.779,2.141C13.139,17.861,13.568,18,14,18c0.391,0,0.781-0.113,1.121-0.344
	c0.715-0.482,1.039-1.369,0.805-2.199l-1.014-3.592l3.223-2.218c0.721-0.497,1.035-1.405,0.775-2.241S17.877,6,17,6h-3.809
	l-1.307-3.672C11.602,1.532,10.846,1,10,1L10,1z"/>
</svg>
