<?xml version="1.0" encoding="utf-8"?>
<!-- Generator: Adobe Illustrator 16.0.0, SVG Export Plug-In . SVG Version: 6.00 Build 0)  -->
<!DOCTYPE svg PUBLIC "-//W3C//DTD SVG 1.0//EN" "http://www.w3.org/TR/2001/REC-SVG-20010904/DTD/svg10.dtd">
<svg version="1.0" id="Layer_1" xmlns="http://www.w3.org/2000/svg" xmlns:xlink="http://www.w3.org/1999/xlink" x="0px" y="0px"
	 width="26px" height="26px" viewBox="0 0 26 26" enable-background="new 0 0 26 26" xml:space="preserve">
<path fill="#808086" d="M15,2v2h5.544l-3.948,3.964C15.059,6.738,13.115,6,11,6c-4.963,0-9,4.037-9,9s4.037,9,9,9s9-4.037,9-9
	c0-2.118-0.74-4.064-1.969-5.603L22,5.438V11h2V2H15z M11,22c-3.866,0-7-3.134-7-7s3.134-7,7-7s7,3.134,7,7S14.866,22,11,22z"/>
</svg>
