<?xml version="1.0" encoding="utf-8"?>
<!-- Generator: Adobe Illustrator 16.0.0, SVG Export Plug-In . SVG Version: 6.00 Build 0)  -->
<!DOCTYPE svg PUBLIC "-//W3C//DTD SVG 1.0//EN" "http://www.w3.org/TR/2001/REC-SVG-20010904/DTD/svg10.dtd">
<svg version="1.0" id="Layer_1" xmlns="http://www.w3.org/2000/svg" xmlns:xlink="http://www.w3.org/1999/xlink" x="0px" y="0px"
	 width="22px" height="22px" viewBox="0 0 22 22" enable-background="new 0 0 22 22" xml:space="preserve" fill="#dd4b39">
<g>
	<g>
		<path d="M11.34,12.445c-0.547-0.41-1.737-1.25-1.737-1.814c0-0.661,0.188-0.986,1.185-1.765c1.02-0.796,1.742-1.846,1.742-3.149
			c0-1.421-0.58-2.707-1.674-3.332h1.549L13.723,1c0,0-4.355,0-5.898,0C4.831,1,2.336,3.207,2.336,5.634
			c0,2.478,1.639,4.456,4.455,4.456c0.195,0,0.385-0.013,0.571-0.025c-0.184,0.35-0.313,0.74-0.313,1.15
			c0,0.688,0.379,1.082,0.848,1.535c-0.354,0-0.695,0.01-1.069,0.01C3.399,12.76,1,15.119,1,17.379C1,19.608,3.893,21,7.32,21
			c3.906,0,6.31-2.215,6.31-4.443C13.63,14.771,13.244,13.873,11.34,12.445z M4.555,5.595C4.279,3.51,5.347,1.913,6.936,1.959
			c1.59,0.049,2.95,1.761,3.225,3.846c0.273,2.088-0.641,3.43-2.23,3.384C6.34,9.14,4.828,7.682,4.555,5.595z M7.307,20.016
			c-2.368,0-4.08-1.498-4.08-3.298c0-1.765,2.008-3.286,4.377-3.259c0.553,0.004,1.068,0.092,1.535,0.244
			c1.287,0.893,2.323,1.452,2.584,2.471c0.049,0.205,0.076,0.417,0.076,0.635C11.799,18.609,10.639,20.016,7.307,20.016z"/>
	</g>
	<polygon points="21,10 18,10 18,7 17,7 17,10 14,10 14,11 17,11 17,14 18,14 18,11 21,11 	"/>
</g>
</svg>
