<?xml version="1.0" encoding="utf-8"?>
<!-- Generator: Adobe Illustrator 16.0.0, SVG Export Plug-In . SVG Version: 6.00 Build 0)  -->
<!DOCTYPE svg PUBLIC "-//W3C//DTD SVG 1.0//EN" "http://www.w3.org/TR/2001/REC-SVG-20010904/DTD/svg10.dtd">
<svg version="1.0" id="Layer_1" xmlns="http://www.w3.org/2000/svg" xmlns:xlink="http://www.w3.org/1999/xlink" x="0px" y="0px"
	 width="26px" height="26px" viewBox="0 0 26 26" enable-background="new 0 0 26 26" xml:space="preserve">
<g>
	<path fill="#808086" d="M1,1v24h24V1H1z M19.363,8.05L17.85,9.564c0.902,1.533,0.709,3.533-0.607,4.851l-2.828,2.828
		c-1.316,1.316-3.316,1.509-4.85,0.606L8.05,19.364c-0.391,0.391-1.023,0.391-1.414,0s-0.391-1.023,0-1.414l1.515-1.515
		c-0.902-1.533-0.71-3.533,0.606-4.85l2.829-2.829c1.316-1.316,3.315-1.509,4.849-0.606l1.515-1.515
		c0.391-0.391,1.023-0.391,1.414,0S19.754,7.659,19.363,8.05z"/>
	<path fill="#808086" d="M15.121,12.293c-0.391,0.392-1.023,0.391-1.414,0s-0.391-1.022,0-1.414l1.218-1.218
		C14.259,9.485,13.521,9.65,13,10.172l-2.828,2.829c-0.521,0.521-0.686,1.258-0.511,1.924l1.218-1.217
		c0.391-0.392,1.023-0.391,1.414,0s0.391,1.022,0,1.414l-1.218,1.217c0.666,0.176,1.404,0.011,1.925-0.51L15.828,13
		c0.521-0.521,0.686-1.259,0.51-1.925L15.121,12.293z"/>
</g>
</svg>
