<?xml version="1.0" encoding="utf-8"?>
<!-- Generator: Adobe Illustrator 16.0.0, SVG Export Plug-In . SVG Version: 6.00 Build 0)  -->
<!DOCTYPE svg PUBLIC "-//W3C//DTD SVG 1.0//EN" "http://www.w3.org/TR/2001/REC-SVG-20010904/DTD/svg10.dtd">
<svg version="1.0" id="Layer_1" xmlns="http://www.w3.org/2000/svg" xmlns:xlink="http://www.w3.org/1999/xlink" x="0px" y="0px"
	 width="22px" height="26px" viewBox="0 0 22 26" enable-background="new 0 0 22 26" xml:space="preserve" fill="#FFFFFF">
<g>
	<path d="M1,1v24h20V1H1z M19,23H3V3h16V23z"/>
	<path d="M9,11H5v4h4V11z M8,14H6v-2h2V14z"/>
	<path d="M9,17H5v4h4V17z M8,20H6v-2h2V20z"/>
	<rect x="11" y="6" width="6" height="2"/>
	<rect x="11" y="12" width="6" height="2"/>
	<rect x="11" y="18" width="6" height="2"/>
	<polygon points="9,5.707 10,4.707 9.293,4 8.293,5 5,5 5,9 9,9 	"/>
</g>
</svg>
