<?xml version="1.0" encoding="utf-8"?>
<!-- Generator: Adobe Illustrator 16.0.0, SVG Export Plug-In . SVG Version: 6.00 Build 0)  -->
<!DOCTYPE svg PUBLIC "-//W3C//DTD SVG 1.0//EN" "http://www.w3.org/TR/2001/REC-SVG-20010904/DTD/svg10.dtd">
<svg version="1.0" id="Layer_1" xmlns="http://www.w3.org/2000/svg" xmlns:xlink="http://www.w3.org/1999/xlink" x="0px" y="0px"
	 width="20px" height="26px" viewBox="0 0 20 26" enable-background="new 0 0 20 26" xml:space="preserve">
<path fill="#808086" d="M16.363,3.636C14.665,1.936,12.404,1,10,1S5.335,1.936,3.636,3.637C1.937,5.336,1,7.596,1,10
	s0.937,4.664,2.637,6.364c0.047,0.047,0.096,0.091,0.146,0.134C4.876,17.396,8,20.527,8,23c0,1.104,0.896,2,2,2s2-0.896,2-2
	c0-2.492,3.123-5.607,4.217-6.502c0.051-0.043,0.1-0.087,0.146-0.134C18.063,14.664,19,12.404,19,10S18.063,5.336,16.363,3.636z
	 M10,14c-2.209,0-4-1.791-4-4s1.791-4,4-4s4,1.791,4,4S12.209,14,10,14z"/>
</svg>
