<?xml version="1.0" encoding="utf-8"?>
<!-- Generator: Adobe Illustrator 16.0.0, SVG Export Plug-In . SVG Version: 6.00 Build 0)  -->
<!DOCTYPE svg PUBLIC "-//W3C//DTD SVG 1.0//EN" "http://www.w3.org/TR/2001/REC-SVG-20010904/DTD/svg10.dtd">
<svg version="1.0" id="Layer_1" xmlns="http://www.w3.org/2000/svg" xmlns:xlink="http://www.w3.org/1999/xlink" x="0px" y="0px"
	 width="20px" height="20px" viewBox="0 0 20 20" enable-background="new 0 0 20 20" xml:space="preserve">
<path fill="#55555D" d="M10,1C9.154,1,8.399,1.532,8.116,2.328L6.809,6H3C2.124,6,1.351,6.57,1.09,7.406
	C0.83,8.242,1.145,9.15,1.866,9.647l3.223,2.218l-1.014,3.592c-0.234,0.83,0.09,1.717,0.804,2.199C5.219,17.887,5.609,18,6,18
	c0.432,0,0.862-0.139,1.221-0.416L10,15.443l2.779,2.141C13.139,17.861,13.568,18,14,18c0.391,0,0.781-0.113,1.121-0.344
	c0.715-0.482,1.039-1.369,0.805-2.199l-1.014-3.592l3.223-2.218c0.721-0.497,1.035-1.405,0.775-2.241S17.877,6,17,6h-3.809
	l-1.307-3.672C11.602,1.532,10.846,1,10,1L10,1z"/>
</svg>
