<?xml version="1.0" encoding="utf-8"?>
<!-- Generator: Adobe Illustrator 16.0.0, SVG Export Plug-In . SVG Version: 6.00 Build 0)  -->
<!DOCTYPE svg PUBLIC "-//W3C//DTD SVG 1.0//EN" "http://www.w3.org/TR/2001/REC-SVG-20010904/DTD/svg10.dtd">
<svg version="1.0" id="Layer_1" xmlns="http://www.w3.org/2000/svg" xmlns:xlink="http://www.w3.org/1999/xlink" x="0px" y="0px"
	 width="26px" height="26px" viewBox="0 0 26 26" enable-background="new 0 0 26 26" xml:space="preserve">
<path fill="#808086" d="M1,1v24h24V1H1z M12,19l-5-4H4v-4h3l5-4V19z M13,16v-1c1.103,0,2-0.898,2-2c0-1.104-0.897-2-2-2v-1
	c1.656,0,3,1.344,3,3S14.656,16,13,16z M15.995,18.193l-0.863-0.689C16.821,16.701,18,14.99,18,13c0-1.991-1.179-3.701-2.868-4.504
	l0.863-0.69C17.79,8.843,19,10.777,19,13S17.79,17.156,15.995,18.193z M18.445,20.154l-0.81-0.646C19.668,18.055,21,15.682,21,13
	c0-2.683-1.332-5.055-3.364-6.508l0.81-0.646C20.602,7.489,22,10.078,22,13S20.602,18.51,18.445,20.154z"/>
</svg>
