<?xml version="1.0" encoding="utf-8"?>
<!-- Generator: Adobe Illustrator 16.0.0, SVG Export Plug-In . SVG Version: 6.00 Build 0)  -->
<!DOCTYPE svg PUBLIC "-//W3C//DTD SVG 1.0//EN" "http://www.w3.org/TR/2001/REC-SVG-20010904/DTD/svg10.dtd">
<svg version="1.0" id="Layer_1" xmlns="http://www.w3.org/2000/svg" xmlns:xlink="http://www.w3.org/1999/xlink" x="0px" y="0px"
	 width="30px" height="42px" viewBox="0 0 30 42" enable-background="new 0 0 30 42" xml:space="preserve">
<g>
	<polygon points="13,17 11,15 10,16 13,19 20,12 19,11 	"/>
	<path d="M26.273,15L29,11.25l-4.236-1.886l0.484-4.613l-4.611,0.486L18.752,1L15,3.727L11.248,1L9.363,5.237L4.752,4.75
		l0.485,4.613L1,11.25L3.727,15L1,18.75l4.237,1.886L4.752,25.25l2.217-0.232L4,39l5-3l3,5l2.936-14.68L15,26.273l0.064,0.047L18,41
		l3-5l5,3l-2.969-13.982l2.217,0.232l-0.484-4.614L29,18.75L26.273,15z M24.654,16.175l1.275,1.752l-1.98,0.881L22.622,19.4
		l0.151,1.446l0.228,2.156l-2.153-0.229L19.4,22.622l-0.592,1.329l-0.881,1.979l-1.753-1.273L15,23.801l-1.176,0.854l-1.753,1.275
		l-0.88-1.979L10.6,22.622l-1.446,0.151L7,23.002l0.227-2.156L7.378,19.4L6.05,18.809l-1.98-0.881l1.274-1.752L6.199,15
		l-0.855-1.176l-1.273-1.751l1.98-0.881L7.378,10.6L7.227,9.154L7,6.999l2.154,0.227L10.6,7.378l0.59-1.328l0.881-1.979l1.753,1.274
		L15,6.199l1.176-0.854l1.754-1.274l0.881,1.979l0.59,1.328l1.445-0.153L23,6.999l-0.227,2.155L22.622,10.6l1.327,0.591l1.98,0.881
		l-1.273,1.751L23.801,15L24.654,16.175z"/>
</g>
</svg>
