<?xml version="1.0" encoding="utf-8"?>
<!-- Generator: Adobe Illustrator 16.0.0, SVG Export Plug-In . SVG Version: 6.00 Build 0)  -->
<!DOCTYPE svg PUBLIC "-//W3C//DTD SVG 1.0//EN" "http://www.w3.org/TR/2001/REC-SVG-20010904/DTD/svg10.dtd">
<svg version="1.0" id="Layer_1" xmlns="http://www.w3.org/2000/svg" xmlns:xlink="http://www.w3.org/1999/xlink" x="0px" y="0px"
	 width="48px" height="48px" viewBox="0 0 48 48" enable-background="new 0 0 48 48" xml:space="preserve">
<path d="M34,12H14c-1.104,0-2,0.896-2,2v20c0,1.104,0.896,2,2,2h20c1.104,0,2-0.896,2-2V14C36,12.896,35.104,12,34,12z
	 M19.633,31.646h-3.431V21.33h3.431V31.646z M17.917,19.92h-0.022c-1.15,0-1.895-0.793-1.895-1.783c0-1.012,0.768-1.783,1.939-1.783
	c1.174,0,1.896,0.771,1.918,1.783C19.857,19.127,19.113,19.92,17.917,19.92z M32,31.646h-3.43v-5.52
	c0-1.387-0.496-2.334-1.738-2.334c-0.946,0-1.512,0.641-1.76,1.256c-0.091,0.221-0.113,0.525-0.113,0.836v5.762H21.53
	c0,0,0.044-9.35,0-10.316h3.429v1.461c0.457-0.705,1.271-1.703,3.092-1.703c2.256,0,3.949,1.473,3.949,4.643V31.646z"/>
	<script>document.getElementsByTagName("path")[0].setAttribute("fill", location.hash);</script>
</svg>
