<?xml version="1.0" encoding="utf-8"?>
<!-- Generator: Adobe Illustrator 16.0.0, SVG Export Plug-In . SVG Version: 6.00 Build 0)  -->
<!DOCTYPE svg PUBLIC "-//W3C//DTD SVG 1.0//EN" "http://www.w3.org/TR/2001/REC-SVG-20010904/DTD/svg10.dtd">
<svg version="1.0" id="Layer_1" xmlns="http://www.w3.org/2000/svg" xmlns:xlink="http://www.w3.org/1999/xlink" x="0px" y="0px"
	 width="26px" height="26px" viewBox="0 0 26 26" enable-background="new 0 0 26 26" xml:space="preserve">
<g>
	<path d="M21,4.971v-1c0-0.553-0.447-1-1-1h-5v-1c0-0.553-0.447-1-1-1h-2c-0.552,0-1,0.447-1,1v1H6c-0.553,0-1,0.447-1,1v1H4v2h1h16
		h1v-2H21z"/>
	<path d="M6,24.029c0,0.553,0.447,1,1,1h12c0.553,0,1-0.447,1-1L21,7.97H5L6,24.029z"/>
</g>
</svg>
