<?xml version="1.0" encoding="utf-8"?>
<!-- Generator: Adobe Illustrator 16.0.0, SVG Export Plug-In . SVG Version: 6.00 Build 0)  -->
<!DOCTYPE svg PUBLIC "-//W3C//DTD SVG 1.0//EN" "http://www.w3.org/TR/2001/REC-SVG-20010904/DTD/svg10.dtd">
<svg version="1.0" id="Layer_1" xmlns="http://www.w3.org/2000/svg" xmlns:xlink="http://www.w3.org/1999/xlink" x="0px" y="0px"
	 width="26px" height="26px" viewBox="0 0 26 26" enable-background="new 0 0 26 26" xml:space="preserve">
<g>
	<path fill="#808086" d="M178,426c-6.627,0-12,5.373-12,12s5.373,12,12,12s12-5.373,12-12S184.627,426,178,426z M178,449
		c-6.065,0-11-4.935-11-11s4.935-11,11-11s11,4.935,11,11S184.065,449,178,449z"/>
	<polygon fill="#808086" points="182.293,443.707 177,438.414 177,429 179,429 179,437.586 183.707,442.293 	"/>
</g>
<g>
	<g>
		<path fill="#808086" d="M22.854,19.838C24.203,17.896,25,15.543,25,13s-0.796-4.896-2.145-6.837
			c-0.001-0.001-0.001-0.001-0.002-0.003l0,0C20.686,3.044,17.084,1,13,1S5.314,3.044,3.146,6.16l0,0
			C3.146,6.162,3.146,6.162,3.145,6.163C1.796,8.104,1,10.457,1,13s0.797,4.896,2.146,6.838c0.001,0,0.001,0,0.001,0v0.001
			c1.116,1.604,2.613,2.92,4.362,3.822c0.002,0.002,0.004,0.003,0.006,0.004l0,0C9.16,24.513,11.021,25,13,25
			s3.84-0.487,5.485-1.335l0,0c0.002-0.001,0.004-0.003,0.006-0.004C20.239,22.759,21.737,21.443,22.854,19.838L22.854,19.838
			C22.854,19.839,22.854,19.838,22.854,19.838z M9.526,20.804c0.009-0.004,0.016-0.01,0.024-0.014
			c-0.441-0.968-0.795-2.098-1.057-3.294c1.29-0.283,2.657-0.445,4.006-0.479v3.012C11.438,20.096,10.435,20.362,9.526,20.804z
			 M16.473,5.197c-0.008,0.004-0.016,0.009-0.023,0.013c0.441,0.968,0.795,2.098,1.057,3.294c-1.29,0.283-2.657,0.445-4.006,0.479
			V5.971C14.561,5.904,15.564,5.639,16.473,5.197z M18.987,12.5c-0.022-1.125-0.122-2.209-0.29-3.232
			c1.518-0.412,2.844-0.979,3.877-1.664c0.826,1.459,1.32,3.123,1.4,4.896H18.987z M17.987,12.5H13.5V9.982
			c1.484-0.03,2.905-0.186,4.201-0.463C17.865,10.499,17.962,11.504,17.987,12.5z M12.5,8.982c-1.349-0.033-2.716-0.195-4.006-0.479
			C8.756,7.308,9.109,6.178,9.551,5.21C9.543,5.206,9.535,5.201,9.527,5.197c0.908,0.441,1.912,0.707,2.973,0.773V8.982z
			 M12.5,9.982V12.5H8.013c0.025-0.996,0.122-2.001,0.286-2.98C9.595,9.797,11.016,9.952,12.5,9.982z M7.013,12.5H2.025
			c0.08-1.773,0.574-3.438,1.4-4.896c1.033,0.686,2.359,1.252,3.877,1.664C7.135,10.291,7.035,11.375,7.013,12.5z M7.013,13.5
			c0.023,1.125,0.122,2.209,0.29,3.232c-1.518,0.412-2.844,0.979-3.877,1.664c-0.826-1.459-1.32-3.123-1.4-4.896H7.013z M8.013,13.5
			H12.5v2.518c-1.484,0.03-2.905,0.186-4.201,0.463C8.135,15.501,8.038,14.496,8.013,13.5z M13.5,17.018
			c1.349,0.033,2.716,0.195,4.006,0.479c-0.262,1.196-0.615,2.326-1.057,3.294c0.009,0.004,0.016,0.01,0.024,0.014
			c-0.908-0.441-1.912-0.708-2.974-0.774V17.018z M13.5,16.018V13.5h4.487c-0.025,0.996-0.122,2.001-0.286,2.98
			C16.405,16.203,14.984,16.048,13.5,16.018z M18.987,13.5h4.987c-0.08,1.773-0.574,3.438-1.4,4.896
			c-1.033-0.686-2.359-1.252-3.877-1.664C18.865,15.709,18.964,14.625,18.987,13.5z M22.052,6.765
			c-0.947,0.614-2.178,1.12-3.545,1.497c-0.285-1.319-0.683-2.52-1.172-3.544c-0.045,0.029-0.095,0.05-0.141,0.078
			c0.545-0.339,1.048-0.737,1.495-1.192C20.02,4.412,21.169,5.486,22.052,6.765z M17.767,3.102C16.516,4.273,14.845,5,13,5
			S9.484,4.273,8.233,3.102C9.678,2.403,11.291,2,13,2S16.322,2.403,17.767,3.102z M7.311,3.604c0.447,0.455,0.95,0.854,1.495,1.192
			C8.76,4.768,8.71,4.747,8.665,4.718C8.176,5.742,7.778,6.942,7.493,8.262C6.126,7.885,4.896,7.379,3.948,6.765
			C4.831,5.486,5.98,4.412,7.311,3.604z M3.948,19.235c0.947-0.614,2.178-1.12,3.545-1.497c0.285,1.319,0.683,2.52,1.172,3.544
			c0.047-0.03,0.1-0.053,0.147-0.082c-0.547,0.339-1.053,0.739-1.502,1.196C5.98,21.588,4.831,20.513,3.948,19.235z M8.233,22.898
			C9.484,21.728,11.156,21,13,21s3.516,0.728,4.767,1.898C16.322,23.597,14.709,24,13,24S9.678,23.597,8.233,22.898z M18.689,22.396
			c-0.449-0.457-0.955-0.857-1.502-1.196c0.048,0.029,0.101,0.052,0.147,0.082c0.489-1.024,0.887-2.225,1.172-3.544
			c1.367,0.377,2.598,0.883,3.545,1.497C21.169,20.513,20.02,21.588,18.689,22.396z"/>
	</g>
</g>
</svg>
