<?xml version="1.0" encoding="utf-8"?>
<!-- Generator: Adobe Illustrator 16.0.0, SVG Export Plug-In . SVG Version: 6.00 Build 0)  -->
<!DOCTYPE svg PUBLIC "-//W3C//DTD SVG 1.0//EN" "http://www.w3.org/TR/2001/REC-SVG-20010904/DTD/svg10.dtd">
<svg version="1.0" id="Layer_1" xmlns="http://www.w3.org/2000/svg" xmlns:xlink="http://www.w3.org/1999/xlink" x="0px" y="0px"
	 width="26px" height="26px" viewBox="0 0 26 26" enable-background="new 0 0 26 26" xml:space="preserve" fill="#FFFFFF">
<g>
	<path d="M13,3c5.514,0,10,4.486,10,10c0,5.514-4.486,10-10,10C7.486,23,3,18.514,3,13C3,7.486,7.486,3,13,3 M13,1
		C6.372,1,1,6.373,1,13c0,6.627,5.372,12,12,12s12-5.373,12-12C25,6.373,19.628,1,13,1L13,1z"/>
	<g>
		<polygon points="9,13 10,12 12,14 18,8 19,9 12,16 		"/>
	</g>
	<path d="M18.766,11.355C18.915,11.879,19,12.429,19,13c0,3.309-2.691,6-6,6c-3.266,0-5.925-2.623-5.993-5.873v-0.255
		C7.075,9.624,9.734,7,13,7c1.11,0,2.148,0.309,3.041,0.837l0.729-0.729C15.682,6.41,14.39,6,13,6c-3.866,0-7,3.133-7,7s3.134,7,7,7
		s7-3.134,7-7c0-0.857-0.162-1.676-0.444-2.435L18.766,11.355z"/>
</g>
</svg>
