<?xml version="1.0" encoding="utf-8"?>
<!-- Generator: Adobe Illustrator 16.0.0, SVG Export Plug-In . SVG Version: 6.00 Build 0)  -->
<!DOCTYPE svg PUBLIC "-//W3C//DTD SVG 1.0//EN" "http://www.w3.org/TR/2001/REC-SVG-20010904/DTD/svg10.dtd">
<svg version="1.0" id="Layer_1" xmlns="http://www.w3.org/2000/svg" xmlns:xlink="http://www.w3.org/1999/xlink" x="0px" y="0px"
	 width="26px" height="26px" viewBox="0 0 26 26" enable-background="new 0 0 26 26" xml:space="preserve">
<g>
	<path fill="#808086" d="M178,426c-6.627,0-12,5.373-12,12s5.373,12,12,12s12-5.373,12-12S184.627,426,178,426z M178,449
		c-6.065,0-11-4.935-11-11s4.935-11,11-11s11,4.935,11,11S184.065,449,178,449z"/>
	<polygon fill="#808086" points="182.293,443.707 177,438.414 177,429 179,429 179,437.586 183.707,442.293 	"/>
</g>
<g>
	<polygon fill="#808086" points="17,9.197 13.251,14.82 10.209,6.709 6.434,13.001 3,13.001 3,15.001 7.566,15.001 9.791,11.291 
		12.749,19.18 17,12.803 18.465,15 23,15 23,13 19.535,13 	"/>
	<path fill="#808086" d="M1,1v24h24V1H1z M24,24h-3v-2h-1v2h-2v-3h-1v3h-2v-2h-1v2h-2v-3h-1v3H9v-2H8v2H6v-3H5v3H2V2h3v3h1V2h2v2h1
		V2h2v3h1V2h2v2h1V2h2v3h1V2h2v2h1V2h3V24z"/>
</g>
</svg>
