<?xml version="1.0" encoding="utf-8"?>
<!-- Generator: Adobe Illustrator 16.0.0, SVG Export Plug-In . SVG Version: 6.00 Build 0)  -->
<!DOCTYPE svg PUBLIC "-//W3C//DTD SVG 1.0//EN" "http://www.w3.org/TR/2001/REC-SVG-20010904/DTD/svg10.dtd">
<svg version="1.0" id="Layer_1" xmlns="http://www.w3.org/2000/svg" xmlns:xlink="http://www.w3.org/1999/xlink" x="0px" y="0px"
	 width="26px" height="26px" viewBox="0 0 26 26" enable-background="new 0 0 26 26" xml:space="preserve">
<path fill="#808086" d="M1,1v24h24V1H1z M17,17c0,2.209-1.791,4-4,4s-4-1.791-4-4V8c0-1.656,1.344-3,3-3s3,1.344,3,3v7
	c0,1.104-0.896,2-2,2s-2-0.896-2-2V9h1v6c0,0.551,0.449,1,1,1s1-0.449,1-1V8c0-1.104-0.896-2-2-2s-2,0.896-2,2v9
	c0,1.654,1.346,3,3,3s3-1.346,3-3V9h1V17z"/>
</svg>
