<?xml version="1.0" encoding="utf-8"?>
<!-- Generator: Adobe Illustrator 16.0.0, SVG Export Plug-In . SVG Version: 6.00 Build 0)  -->
<!DOCTYPE svg PUBLIC "-//W3C//DTD SVG 1.0//EN" "http://www.w3.org/TR/2001/REC-SVG-20010904/DTD/svg10.dtd">
<svg version="1.0" id="Layer_1" xmlns="http://www.w3.org/2000/svg" xmlns:xlink="http://www.w3.org/1999/xlink" x="0px" y="0px"
	 width="32px" height="32px" viewBox="0 0 32 32" enable-background="new 0 0 32 32" xml:space="preserve">
<g>
	<polygon fill="#808086" points="24,10 24,16 24,18 22,18 13,18 10,21 10,22 20,22 26,28 26,22 28,22 28,10 	"/>
	<path fill="#27272E" d="M4,4v12h2v6l6-6h10V4H4z M9,11c-0.553,0-1-0.447-1-1s0.447-1,1-1s1,0.447,1,1S9.553,11,9,11z M13,11
		c-0.553,0-1-0.447-1-1s0.447-1,1-1s1,0.447,1,1S13.553,11,13,11z M17,11c-0.553,0-1-0.447-1-1s0.447-1,1-1s1,0.447,1,1
		S17.553,11,17,11z"/>
</g>
</svg>
