<?xml version="1.0" encoding="utf-8"?>
<!-- Generator: Adobe Illustrator 16.0.0, SVG Export Plug-In . SVG Version: 6.00 Build 0)  -->
<!DOCTYPE svg PUBLIC "-//W3C//DTD SVG 1.0//EN" "http://www.w3.org/TR/2001/REC-SVG-20010904/DTD/svg10.dtd">
<svg version="1.0" id="Layer_1" xmlns="http://www.w3.org/2000/svg" xmlns:xlink="http://www.w3.org/1999/xlink" x="0px" y="0px"
	 width="26px" height="26px" viewBox="0 0 26 26" enable-background="new 0 0 26 26" xml:space="preserve">
<g>
	<path d="M13,3c5.514,0,10,4.486,10,10c0,5.514-4.486,10-10,10C7.486,23,3,18.514,3,13C3,7.486,7.486,3,13,3 M13,1
		C6.373,1,1,6.373,1,13s5.373,12,12,12s12-5.373,12-12S19.627,1,13,1L13,1z"/>
	<path d="M5,12l7-3v2l-5,2l5,2v2.064L5,14V12z"/>
	<path d="M21,14l-7,3.064V15l5-2l-5-2V9l7,3V14z"/>
</g>
</svg>
