<?xml version="1.0" encoding="utf-8"?>
<!-- Generator: Adobe Illustrator 16.0.0, SVG Export Plug-In . SVG Version: 6.00 Build 0)  -->
<!DOCTYPE svg PUBLIC "-//W3C//DTD SVG 1.0//EN" "http://www.w3.org/TR/2001/REC-SVG-20010904/DTD/svg10.dtd">
<svg version="1.0" id="Layer_1" xmlns="http://www.w3.org/2000/svg" xmlns:xlink="http://www.w3.org/1999/xlink" x="0px" y="0px"
	 width="48px" height="48px" viewBox="0 0 48 48" enable-background="new 0 0 48 48" xml:space="preserve">
<g>
	<g>
		<path d="M24.407,25.734c-0.656-0.492-2.083-1.5-2.083-2.177c0-0.794,0.226-1.184,1.421-2.118c1.223-0.955,2.089-2.215,2.089-3.779
			c0-1.705-0.696-3.249-2.007-3.999h1.857L27.265,12c0,0-5.223,0-7.073,0c-3.589,0-6.581,2.648-6.581,5.561
			c0,2.974,1.965,5.347,5.342,5.347c0.234,0,0.463-0.015,0.686-0.029c-0.22,0.419-0.375,0.888-0.375,1.38
			c0,0.826,0.454,1.298,1.017,1.843c-0.425,0-0.835,0.012-1.283,0.012c-4.11,0-6.987,2.83-6.987,5.543
			c0,2.675,3.469,4.345,7.579,4.345c4.685,0,7.565-2.657,7.565-5.332C27.153,28.526,26.69,27.448,24.407,25.734z M16.271,17.514
			c-0.331-2.502,0.949-4.418,2.854-4.362c1.906,0.059,3.538,2.112,3.866,4.614c0.328,2.505-0.768,4.116-2.673,4.061
			C18.411,21.768,16.6,20.019,16.271,17.514z M19.571,34.819c-2.84,0-4.893-1.799-4.893-3.958c0-2.118,2.407-3.943,5.249-3.911
			c0.662,0.006,1.28,0.111,1.84,0.293c1.544,1.072,2.786,1.743,3.1,2.965c0.059,0.246,0.091,0.501,0.091,0.762
			C24.958,33.132,23.566,34.819,19.571,34.819z"/>
	</g>
	<polygon points="35.998,15 32.998,15 32.998,12 30.998,12 30.998,15 27.998,15 27.998,17 30.998,17 30.998,20 32.998,20 32.998,17 
		35.998,17 	"/>
</g>
</svg>
